<svg width="23" height="18" viewBox="0 0 23 18" fill="none" xmlns="http://www.w3.org/2000/svg">
<g id="Education">
<path id="Subtract" d="M6.01401 9.14092C5.95564 9.11566 5.8967 9.0901 5.83719 9.06426C5.25745 8.81251 4.74077 8.58816 4.28716 8.38522C3.83715 9.18397 3.67999 10.487 3.67999 12.6C3.67999 17.1 5.05464 18 11.4684 18C17.48 18 19.32 17.1 19.32 12.6C19.32 10.4922 19.1565 9.19038 18.6996 8.39112C18.2492 8.5925 17.7369 8.81495 17.1628 9.06426C17.0976 9.09256 17.0331 9.12052 16.9693 9.14814C16.9716 9.14919 16.9738 9.15025 16.976 9.1513L16.9798 9.15255C17.0025 9.15912 17.1032 9.18823 17.2243 9.5981C17.3838 10.1381 17.48 11.0442 17.48 12.6C17.48 14.6891 17.0412 15.2211 16.6302 15.4883C16.3329 15.6815 15.8308 15.8764 14.9489 16.0104C14.0713 16.1438 12.9403 16.2 11.4684 16.2C9.89084 16.2 8.71438 16.1434 7.82464 16.0099C6.92847 15.8754 6.47143 15.6828 6.22706 15.5148C5.90099 15.2906 5.51999 14.8186 5.51999 12.6C5.51999 11.0411 5.61236 10.1312 5.76921 9.58652C5.8413 9.33621 5.9088 9.23209 5.93434 9.19856C5.94968 9.17843 5.95989 9.16725 6.00137 9.14693C6.00544 9.14494 6.00965 9.14293 6.01401 9.14092Z" fill="#0500FF"/>
<path id="Union" fill-rule="evenodd" clip-rule="evenodd" d="M5.02331 10.4858C7.59201 11.7251 9.49168 12.6 11.5 12.6C13.5084 12.6 15.408 11.7251 17.9767 10.4858L18.0678 10.4418C19.3226 9.83646 20.3854 9.32371 21.1263 8.87688C21.5041 8.64904 21.9119 8.3726 22.2414 8.03479C22.5699 7.698 23 7.11347 23 6.30001C23 5.48655 22.5699 4.90202 22.2414 4.56524C21.9119 4.22742 21.5041 3.95098 21.1263 3.72315C20.3854 3.27632 19.3226 2.76357 18.0678 2.15818L17.9767 2.11424C15.408 0.874889 13.5084 0 11.5 0C9.49168 0 7.59201 0.874884 5.0233 2.11424L4.93224 2.15818C3.67739 2.76357 2.61458 3.27632 1.87369 3.72315C1.49592 3.95099 1.08808 4.22742 0.758589 4.56524C0.430556 4.90157 0.00117349 5.48496 6.11436e-06 6.2967C2.03935e-06 6.29781 0 6.29891 0 6.30002V13.5C0 13.9971 0.411898 14.4 0.92 14.4C1.4281 14.4 1.84 13.9971 1.84 13.5L1.84 8.85649C1.85125 8.86333 1.86249 8.87013 1.87369 8.87689C2.61457 9.32371 3.67737 9.83645 4.93219 10.4418L5.02331 10.4858ZM5.83719 8.87145C11.1668 11.4429 11.8333 11.4429 17.1628 8.87145C22.4924 6.30001 22.4924 6.30001 17.1628 3.72858C11.8333 1.15715 11.1668 1.15714 5.83719 3.72858C3.17241 5.0143 1.84 5.65716 1.84 6.30002C1.84 6.94288 3.1724 7.58574 5.83719 8.87145Z" fill="#0500FF"/>
</g>
</svg>
