<svg width="21" height="21" viewBox="0 0 21 21" fill="none" xmlns="http://www.w3.org/2000/svg">
<path id="Icon" d="M4.15048 17.5665C4.72839 16.2049 6.07768 15.25 7.65 15.25H13.35C14.9223 15.25 16.2716 16.2049 16.8495 17.5665M14.3 8.125C14.3 10.2237 12.5987 11.925 10.5 11.925C8.40132 11.925 6.7 10.2237 6.7 8.125C6.7 6.02632 8.40132 4.325 10.5 4.325C12.5987 4.325 14.3 6.02632 14.3 8.125ZM20 10.5C20 15.7467 15.7467 20 10.5 20C5.25329 20 1 15.7467 1 10.5C1 5.25329 5.25329 1 10.5 1C15.7467 1 20 5.25329 20 10.5Z" stroke="#0500FF" stroke-width="2" stroke-linecap="round" stroke-linejoin="round"/>
</svg>
