<svg width="50" height="50" viewBox="0 0 22 22" fill="none" xmlns="http://www.w3.org/2000/svg">
<path fill-rule="evenodd" clip-rule="evenodd" d="M10.4373 1.10972C10.7683 0.852261 11.2318 0.852261 11.5628 1.10972L19.8128 7.52639C20.0361 7.70005 20.1667 7.96708 20.1667 8.24996V18.3333C20.1667 19.0626 19.877 19.7621 19.3613 20.2778C18.8455 20.7936 18.1461 21.0833 17.4167 21.0833H4.58337C3.85403 21.0833 3.15456 20.7936 2.63883 20.2778C2.12311 19.7621 1.83337 19.0626 1.83337 18.3333V8.24996C1.83337 7.96708 1.96397 7.70005 2.18726 7.52639L10.4373 1.10972ZM3.66671 8.69829V18.3333C3.66671 18.5764 3.76328 18.8096 3.93519 18.9815C4.1071 19.1534 4.34026 19.25 4.58337 19.25H17.4167C17.6598 19.25 17.893 19.1534 18.0649 18.9815C18.2368 18.8096 18.3334 18.5764 18.3334 18.3333V8.69829L11 2.99458L3.66671 8.69829Z" fill="#161719"/>
<path fill-rule="evenodd" clip-rule="evenodd" d="M12.5415 11.8462C14.9103 10.5723 17.6768 10.6236 19.4886 11.0262L19.0114 13.1738C17.5232 12.8431 15.3397 12.8393 13.5835 13.7838C11.9318 14.6721 10.45 16.5094 10.45 20.35H8.25C8.25 15.8306 10.0682 13.1763 12.5415 11.8462Z" fill="#161719"/>
</svg>
