<svg width="50" height="50" viewBox="0 0 27 24" fill="none" xmlns="http://www.w3.org/2000/svg">
<path fill-rule="evenodd" clip-rule="evenodd" d="M5.93377 10.1262C5.625 10.7229 5.625 11.4018 5.625 12.7595V16.9999C5.625 18.8856 5.625 19.8284 6.28401 20.4142C6.89607 20.9582 7.85458 20.997 9.6875 20.9997V16C9.6875 14.788 10.7529 14 11.8125 14H15.1875C16.2471 14 17.3125 14.788 17.3125 16V20.9997C19.1454 20.997 20.1039 20.9582 20.716 20.4142C21.375 19.8284 21.375 18.8856 21.375 16.9999V12.7595C21.375 11.4018 21.375 10.7229 21.0662 10.1262C20.7575 9.52943 20.1776 9.08763 19.0178 8.20401L17.8928 7.34687C15.7966 5.74974 14.7485 4.95117 13.5 4.95117C12.2515 4.95117 11.2034 5.74974 9.10716 7.34687L7.98216 8.20401C6.82241 9.08763 6.24254 9.52943 5.93377 10.1262ZM15.3125 20.9999V16.0353C15.2926 16.0205 15.2511 16 15.1875 16H11.8125C11.7489 16 11.7074 16.0205 11.6875 16.0353V20.9999H15.3125Z" fill="#222222"/>
</svg>
